<mxfile host="app.diagrams.net" modified="2020-09-03T04:12:42.814Z" agent="5.0 (Macintosh; Intel Mac OS X 10_15_6) AppleWebKit/537.36 (KHTML, like Gecko) Chrome/84.0.4147.135 Safari/537.36" etag="5ajy_eNsxoADPcsUVkMv" version="13.6.6" type="github">
  <diagram name="Page-1" id="97916047-d0de-89f5-080d-49f4d83e522f">
    <mxGraphModel dx="1062" dy="713" grid="1" gridSize="10" guides="1" tooltips="1" connect="1" arrows="1" fold="1" page="1" pageScale="1.5" pageWidth="1169" pageHeight="827" background="#ffffff" math="0" shadow="0">
      <root>
        <mxCell id="0" />
        <mxCell id="1" parent="0" />
        <mxCell id="6aBQAh_S1EAsdeb0UYPw-55" value="&lt;h1&gt;&lt;b&gt;&lt;font color=&quot;#4d4d4d&quot;&gt;EC コンテンツ&lt;/font&gt;&lt;/b&gt;&lt;/h1&gt;" style="rounded=1;whiteSpace=wrap;html=1;strokeWidth=2;fillWeight=4;hachureGap=8;hachureAngle=45;sketch=1;fillColor=#b1ddf0;strokeColor=#10739e;" vertex="1" parent="1">
          <mxGeometry x="1160" y="500" width="170" height="90" as="geometry" />
        </mxCell>
        <mxCell id="6aBQAh_S1EAsdeb0UYPw-87" style="edgeStyle=orthogonalEdgeStyle;rounded=0;orthogonalLoop=1;jettySize=auto;html=1;entryX=0;entryY=0.5;entryDx=0;entryDy=0;" edge="1" parent="1" source="6aBQAh_S1EAsdeb0UYPw-57" target="6aBQAh_S1EAsdeb0UYPw-55">
          <mxGeometry relative="1" as="geometry" />
        </mxCell>
        <mxCell id="6aBQAh_S1EAsdeb0UYPw-57" value="&lt;h1&gt;&lt;font color=&quot;#4d4d4d&quot;&gt;トップページ&lt;/font&gt;&lt;/h1&gt;&lt;span style=&quot;color: rgba(0 , 0 , 0 , 0) ; font-family: monospace ; font-size: 0px&quot;&gt;%3CmxGraphModel%3E%3Croot%3E%3CmxCell%20id%3D%220%22%2F%3E%3CmxCell%20id%3D%221%22%20parent%3D%220%22%2F%3E%3CmxCell%20id%3D%222%22%20value%3D%22%26lt%3Bh1%26gt%3B%26lt%3Bb%26gt%3B%26lt%3Bfont%20color%3D%26quot%3B%234d4d4d%26quot%3B%26gt%3BEC%20%E3%82%B3%E3%83%B3%E3%83%86%E3%83%B3%E3%83%84%26lt%3B%2Ffont%26gt%3B%26lt%3B%2Fb%26gt%3B%26lt%3B%2Fh1%26gt%3B%22%20style%3D%22rounded%3D1%3BwhiteSpace%3Dwrap%3Bhtml%3D1%3BstrokeWidth%3D2%3BfillWeight%3D4%3BhachureGap%3D8%3BhachureAngle%3D45%3Bsketch%3D1%3BfillColor%3D%23b1ddf0%3BstrokeColor%3D%2310739e%3B%22%20vertex%3D%221%22%20parent%3D%221%22%3E%3CmxGeometry%20x%3D%221100%22%20y%3D%22370%22%20width%3D%22190%22%20height%3D%2290%22%20as%3D%22geometry%22%2F%3E%3C%2FmxCell%3E%3C%2Froot%3E%3C%2FmxGraphModel%3E&lt;/span&gt;&lt;span style=&quot;color: rgba(0 , 0 , 0 , 0) ; font-family: monospace ; font-size: 0px&quot;&gt;%3CmxGraphModel%3E%3Croot%3E%3CmxCell%20id%3D%220%22%2F%3E%3CmxCell%20id%3D%221%22%20parent%3D%220%22%2F%3E%3CmxCell%20id%3D%222%22%20value%3D%22%26lt%3Bh1%26gt%3B%26lt%3Bb%26gt%3B%26lt%3Bfont%20color%3D%26quot%3B%234d4d4d%26quot%3B%26gt%3BEC%20%E3%82%B3%E3%83%B3%E3%83%86%E3%83%B3%E3%83%84%26lt%3B%2Ffont%26gt%3B%26lt%3B%2Fb%26gt%3B%26lt%3B%2Fh1%26gt%3B%22%20style%3D%22rounded%3D1%3BwhiteSpace%3Dwrap%3Bhtml%3D1%3BstrokeWidth%3D2%3BfillWeight%3D4%3BhachureGap%3D8%3BhachureAngle%3D45%3Bsketch%3D1%3BfillColor%3D%23b1ddf0%3BstrokeColor%3D%2310739e%3B%22%20vertex%3D%221%22%20parent%3D%221%22%3E%3CmxGeometry%20x%3D%221100%22%20y%3D%22370%22%20width%3D%22190%22%20height%3D%2290%22%20as%3D%22geometry%22%2F%3E%3C%2FmxCell%3E%3C%2Froot%3E%3C%2FmxGraphModel%3E&lt;/span&gt;&lt;span style=&quot;color: rgba(0 , 0 , 0 , 0) ; font-family: monospace ; font-size: 0px&quot;&gt;&lt;br&gt;&lt;/span&gt;&lt;span style=&quot;color: rgba(0 , 0 , 0 , 0) ; font-family: monospace ; font-size: 0px&quot;&gt;%3CmxGraphModel%3E%3Croot%3E%3CmxCell%20id%3D%220%22%2F%3E%3CmxCell%20id%3D%221%22%20parent%3D%220%22%2F%3E%3CmxCell%20id%3D%222%22%20value%3D%22%26lt%3Bh1%26gt%3B%26lt%3Bb%26gt%3B%26lt%3Bfont%20color%3D%26quot%3B%234d4d4d%26quot%3B%26gt%3BEC%20%E3%82%B3%E3%83%B3%E3%83%86%E3%83%B3%E3%83%84%26lt%3B%2Ffont%26gt%3B%26lt%3B%2Fb%26gt%3B%26lt%3B%2Fh1%26gt%3B%22%20style%3D%22rounded%3D1%3BwhiteSpace%3Dwrap%3Bhtml%3D1%3BstrokeWidth%3D2%3BfillWeight%3D4%3BhachureGap%3D8%3BhachureAngle%3D45%3Bsketch%3D1%3BfillColor%3D%23b1ddf0%3BstrokeColor%3D%2310739e%3B%22%20vertex%3D%221%22%20parent%3D%221%22%3E%3CmxGeometry%20x%3D%221100%22%20y%3D%22370%22%20width%3D%22190%22%20height%3D%2290%22%20as%3D%22geometry%22%2F%3E%3C%2FmxCell%3E%3C%2Froot%3E%3C%2FmxGraphModel%3E&lt;/span&gt;" style="rounded=1;whiteSpace=wrap;html=1;strokeWidth=2;fillWeight=4;hachureGap=8;hachureAngle=45;sketch=1;fillColor=#b1ddf0;strokeColor=#10739e;" vertex="1" parent="1">
          <mxGeometry x="730" y="40" width="190" height="90" as="geometry" />
        </mxCell>
        <mxCell id="6aBQAh_S1EAsdeb0UYPw-86" style="edgeStyle=orthogonalEdgeStyle;rounded=0;orthogonalLoop=1;jettySize=auto;html=1;entryX=0;entryY=0.5;entryDx=0;entryDy=0;" edge="1" parent="1" source="6aBQAh_S1EAsdeb0UYPw-58" target="6aBQAh_S1EAsdeb0UYPw-55">
          <mxGeometry relative="1" as="geometry" />
        </mxCell>
        <mxCell id="6aBQAh_S1EAsdeb0UYPw-58" value="&lt;h1&gt;&lt;font color=&quot;#4d4d4d&quot;&gt;ログイン&lt;/font&gt;&lt;/h1&gt;" style="rounded=1;whiteSpace=wrap;html=1;strokeWidth=2;fillWeight=4;hachureGap=8;hachureAngle=45;sketch=1;fillColor=#b1ddf0;strokeColor=#10739e;" vertex="1" parent="1">
          <mxGeometry x="730" y="160" width="190" height="90" as="geometry" />
        </mxCell>
        <mxCell id="6aBQAh_S1EAsdeb0UYPw-85" style="edgeStyle=orthogonalEdgeStyle;rounded=0;orthogonalLoop=1;jettySize=auto;html=1;exitX=1;exitY=0.5;exitDx=0;exitDy=0;entryX=0;entryY=0.5;entryDx=0;entryDy=0;" edge="1" parent="1" source="6aBQAh_S1EAsdeb0UYPw-59" target="6aBQAh_S1EAsdeb0UYPw-55">
          <mxGeometry relative="1" as="geometry" />
        </mxCell>
        <mxCell id="6aBQAh_S1EAsdeb0UYPw-59" value="&lt;h1&gt;&lt;font color=&quot;#4d4d4d&quot;&gt;商品一覧&lt;/font&gt;&lt;/h1&gt;" style="rounded=1;whiteSpace=wrap;html=1;strokeWidth=2;fillWeight=4;hachureGap=8;hachureAngle=45;sketch=1;fillColor=#b1ddf0;strokeColor=#10739e;" vertex="1" parent="1">
          <mxGeometry x="730" y="280" width="190" height="90" as="geometry" />
        </mxCell>
        <mxCell id="6aBQAh_S1EAsdeb0UYPw-84" style="edgeStyle=orthogonalEdgeStyle;rounded=0;orthogonalLoop=1;jettySize=auto;html=1;exitX=1;exitY=0.5;exitDx=0;exitDy=0;entryX=0;entryY=0.5;entryDx=0;entryDy=0;" edge="1" parent="1" source="6aBQAh_S1EAsdeb0UYPw-60" target="6aBQAh_S1EAsdeb0UYPw-55">
          <mxGeometry relative="1" as="geometry" />
        </mxCell>
        <mxCell id="6aBQAh_S1EAsdeb0UYPw-60" value="&lt;h1&gt;&lt;font color=&quot;#4d4d4d&quot;&gt;商品詳細&lt;/font&gt;&lt;/h1&gt;" style="rounded=1;whiteSpace=wrap;html=1;strokeWidth=2;fillWeight=4;hachureGap=8;hachureAngle=45;sketch=1;fillColor=#b1ddf0;strokeColor=#10739e;" vertex="1" parent="1">
          <mxGeometry x="730" y="400" width="190" height="90" as="geometry" />
        </mxCell>
        <mxCell id="6aBQAh_S1EAsdeb0UYPw-83" style="edgeStyle=orthogonalEdgeStyle;rounded=0;orthogonalLoop=1;jettySize=auto;html=1;" edge="1" parent="1" source="6aBQAh_S1EAsdeb0UYPw-61">
          <mxGeometry relative="1" as="geometry">
            <mxPoint x="1170" y="545" as="targetPoint" />
          </mxGeometry>
        </mxCell>
        <mxCell id="6aBQAh_S1EAsdeb0UYPw-61" value="&lt;h1&gt;&lt;font color=&quot;#4d4d4d&quot;&gt;ショッピングカート&lt;/font&gt;&lt;/h1&gt;" style="rounded=1;whiteSpace=wrap;html=1;strokeWidth=2;fillWeight=4;hachureGap=8;hachureAngle=45;sketch=1;fillColor=#b1ddf0;strokeColor=#10739e;" vertex="1" parent="1">
          <mxGeometry x="730" y="510" width="190" height="90" as="geometry" />
        </mxCell>
        <mxCell id="6aBQAh_S1EAsdeb0UYPw-82" style="edgeStyle=orthogonalEdgeStyle;rounded=0;orthogonalLoop=1;jettySize=auto;html=1;exitX=1;exitY=0.5;exitDx=0;exitDy=0;entryX=0;entryY=0.5;entryDx=0;entryDy=0;" edge="1" parent="1" source="6aBQAh_S1EAsdeb0UYPw-62" target="6aBQAh_S1EAsdeb0UYPw-55">
          <mxGeometry relative="1" as="geometry" />
        </mxCell>
        <mxCell id="6aBQAh_S1EAsdeb0UYPw-62" value="&lt;h1&gt;&lt;font color=&quot;#4d4d4d&quot;&gt;注文確認&lt;/font&gt;&lt;/h1&gt;" style="rounded=1;whiteSpace=wrap;html=1;strokeWidth=2;fillWeight=4;hachureGap=8;hachureAngle=45;sketch=1;fillColor=#b1ddf0;strokeColor=#10739e;" vertex="1" parent="1">
          <mxGeometry x="730" y="660" width="190" height="90" as="geometry" />
        </mxCell>
        <mxCell id="6aBQAh_S1EAsdeb0UYPw-81" style="edgeStyle=orthogonalEdgeStyle;rounded=0;orthogonalLoop=1;jettySize=auto;html=1;exitX=1;exitY=0.5;exitDx=0;exitDy=0;entryX=0;entryY=0.5;entryDx=0;entryDy=0;" edge="1" parent="1" source="6aBQAh_S1EAsdeb0UYPw-64" target="6aBQAh_S1EAsdeb0UYPw-55">
          <mxGeometry relative="1" as="geometry" />
        </mxCell>
        <mxCell id="6aBQAh_S1EAsdeb0UYPw-64" value="&lt;h1&gt;&lt;font color=&quot;#4d4d4d&quot;&gt;注文&lt;/font&gt;&lt;/h1&gt;" style="rounded=1;whiteSpace=wrap;html=1;strokeWidth=2;fillWeight=4;hachureGap=8;hachureAngle=45;sketch=1;fillColor=#b1ddf0;strokeColor=#10739e;" vertex="1" parent="1">
          <mxGeometry x="730" y="790" width="190" height="90" as="geometry" />
        </mxCell>
        <mxCell id="6aBQAh_S1EAsdeb0UYPw-80" style="edgeStyle=orthogonalEdgeStyle;rounded=0;orthogonalLoop=1;jettySize=auto;html=1;exitX=1;exitY=0.5;exitDx=0;exitDy=0;entryX=0;entryY=0.5;entryDx=0;entryDy=0;" edge="1" parent="1" source="6aBQAh_S1EAsdeb0UYPw-65" target="6aBQAh_S1EAsdeb0UYPw-55">
          <mxGeometry relative="1" as="geometry" />
        </mxCell>
        <mxCell id="6aBQAh_S1EAsdeb0UYPw-65" value="&lt;h1&gt;&lt;font color=&quot;#4d4d4d&quot;&gt;注文履歴&lt;/font&gt;&lt;/h1&gt;" style="rounded=1;whiteSpace=wrap;html=1;strokeWidth=2;fillWeight=4;hachureGap=8;hachureAngle=45;sketch=1;fillColor=#b1ddf0;strokeColor=#10739e;" vertex="1" parent="1">
          <mxGeometry x="730" y="940" width="190" height="90" as="geometry" />
        </mxCell>
        <mxCell id="6aBQAh_S1EAsdeb0UYPw-88" value="&lt;font style=&quot;font-size: 17px&quot;&gt;&lt;b&gt;ページ&lt;/b&gt;&lt;/font&gt;" style="text;html=1;resizable=0;autosize=1;align=center;verticalAlign=middle;points=[];fillColor=none;strokeColor=none;rounded=0;" vertex="1" parent="1">
          <mxGeometry x="1080" y="520" width="70" height="20" as="geometry" />
        </mxCell>
        <mxCell id="6aBQAh_S1EAsdeb0UYPw-98" style="edgeStyle=orthogonalEdgeStyle;rounded=0;orthogonalLoop=1;jettySize=auto;html=1;entryX=1;entryY=0.5;entryDx=0;entryDy=0;" edge="1" parent="1" source="6aBQAh_S1EAsdeb0UYPw-89" target="6aBQAh_S1EAsdeb0UYPw-55">
          <mxGeometry relative="1" as="geometry" />
        </mxCell>
        <mxCell id="6aBQAh_S1EAsdeb0UYPw-89" value="&lt;h1&gt;&lt;font color=&quot;#4d4d4d&quot;&gt;NavHeader&lt;/font&gt;&lt;/h1&gt;" style="rounded=1;whiteSpace=wrap;html=1;strokeWidth=2;fillWeight=4;hachureGap=8;hachureAngle=45;sketch=1;strokeColor=#23445d;fillColor=#C3ABD0;" vertex="1" parent="1">
          <mxGeometry x="1545" y="35" width="190" height="80" as="geometry" />
        </mxCell>
        <mxCell id="6aBQAh_S1EAsdeb0UYPw-99" style="edgeStyle=orthogonalEdgeStyle;rounded=0;orthogonalLoop=1;jettySize=auto;html=1;entryX=1;entryY=0.5;entryDx=0;entryDy=0;" edge="1" parent="1" source="6aBQAh_S1EAsdeb0UYPw-90" target="6aBQAh_S1EAsdeb0UYPw-55">
          <mxGeometry relative="1" as="geometry" />
        </mxCell>
        <mxCell id="6aBQAh_S1EAsdeb0UYPw-90" value="&lt;h1&gt;&lt;font color=&quot;#4d4d4d&quot;&gt;NavFooter&lt;/font&gt;&lt;/h1&gt;" style="rounded=1;whiteSpace=wrap;html=1;strokeWidth=2;fillWeight=4;hachureGap=8;hachureAngle=45;sketch=1;strokeColor=#23445d;fillColor=#C3ABD0;" vertex="1" parent="1">
          <mxGeometry x="1545" y="155" width="190" height="80" as="geometry" />
        </mxCell>
        <mxCell id="6aBQAh_S1EAsdeb0UYPw-100" style="edgeStyle=orthogonalEdgeStyle;rounded=0;orthogonalLoop=1;jettySize=auto;html=1;entryX=1;entryY=0.5;entryDx=0;entryDy=0;" edge="1" parent="1" source="6aBQAh_S1EAsdeb0UYPw-91" target="6aBQAh_S1EAsdeb0UYPw-55">
          <mxGeometry relative="1" as="geometry" />
        </mxCell>
        <mxCell id="6aBQAh_S1EAsdeb0UYPw-91" value="&lt;h1&gt;&lt;font color=&quot;#4d4d4d&quot;&gt;ServiceBar&lt;/font&gt;&lt;/h1&gt;" style="rounded=1;whiteSpace=wrap;html=1;strokeWidth=2;fillWeight=4;hachureGap=8;hachureAngle=45;sketch=1;strokeColor=#23445d;fillColor=#C3ABD0;" vertex="1" parent="1">
          <mxGeometry x="1545" y="280" width="190" height="80" as="geometry" />
        </mxCell>
        <mxCell id="6aBQAh_S1EAsdeb0UYPw-101" style="edgeStyle=orthogonalEdgeStyle;rounded=0;orthogonalLoop=1;jettySize=auto;html=1;entryX=1;entryY=0.5;entryDx=0;entryDy=0;" edge="1" parent="1" source="6aBQAh_S1EAsdeb0UYPw-92" target="6aBQAh_S1EAsdeb0UYPw-55">
          <mxGeometry relative="1" as="geometry" />
        </mxCell>
        <mxCell id="6aBQAh_S1EAsdeb0UYPw-92" value="&lt;h1&gt;&lt;font color=&quot;#4d4d4d&quot;&gt;ProductParam&lt;/font&gt;&lt;/h1&gt;" style="rounded=1;whiteSpace=wrap;html=1;strokeWidth=2;fillWeight=4;hachureGap=8;hachureAngle=45;sketch=1;strokeColor=#23445d;fillColor=#C3ABD0;" vertex="1" parent="1">
          <mxGeometry x="1545" y="405" width="190" height="80" as="geometry" />
        </mxCell>
        <mxCell id="6aBQAh_S1EAsdeb0UYPw-103" style="edgeStyle=orthogonalEdgeStyle;rounded=0;orthogonalLoop=1;jettySize=auto;html=1;entryX=1;entryY=0.5;entryDx=0;entryDy=0;" edge="1" parent="1" source="6aBQAh_S1EAsdeb0UYPw-93" target="6aBQAh_S1EAsdeb0UYPw-55">
          <mxGeometry relative="1" as="geometry" />
        </mxCell>
        <mxCell id="6aBQAh_S1EAsdeb0UYPw-93" value="&lt;h1&gt;&lt;font color=&quot;#4d4d4d&quot;&gt;OrderHeader&lt;/font&gt;&lt;/h1&gt;" style="rounded=1;whiteSpace=wrap;html=1;strokeWidth=2;fillWeight=4;hachureGap=8;hachureAngle=45;sketch=1;strokeColor=#23445d;fillColor=#C3ABD0;" vertex="1" parent="1">
          <mxGeometry x="1545" y="525" width="200" height="70" as="geometry" />
        </mxCell>
        <mxCell id="6aBQAh_S1EAsdeb0UYPw-104" style="edgeStyle=orthogonalEdgeStyle;rounded=0;orthogonalLoop=1;jettySize=auto;html=1;entryX=1;entryY=0.5;entryDx=0;entryDy=0;" edge="1" parent="1" source="6aBQAh_S1EAsdeb0UYPw-94" target="6aBQAh_S1EAsdeb0UYPw-55">
          <mxGeometry relative="1" as="geometry" />
        </mxCell>
        <mxCell id="6aBQAh_S1EAsdeb0UYPw-94" value="&lt;h1&gt;&lt;font color=&quot;#4d4d4d&quot;&gt;Loading&lt;/font&gt;&lt;/h1&gt;" style="rounded=1;whiteSpace=wrap;html=1;strokeWidth=2;fillWeight=4;hachureGap=8;hachureAngle=45;sketch=1;strokeColor=#23445d;fillColor=#C3ABD0;" vertex="1" parent="1">
          <mxGeometry x="1545" y="645" width="200" height="70" as="geometry" />
        </mxCell>
        <mxCell id="6aBQAh_S1EAsdeb0UYPw-105" style="edgeStyle=orthogonalEdgeStyle;rounded=0;orthogonalLoop=1;jettySize=auto;html=1;entryX=1;entryY=0.5;entryDx=0;entryDy=0;" edge="1" parent="1" source="6aBQAh_S1EAsdeb0UYPw-95" target="6aBQAh_S1EAsdeb0UYPw-55">
          <mxGeometry relative="1" as="geometry" />
        </mxCell>
        <mxCell id="6aBQAh_S1EAsdeb0UYPw-95" value="&lt;h1&gt;&lt;font color=&quot;#4d4d4d&quot;&gt;Modal&lt;/font&gt;&lt;/h1&gt;&lt;span style=&quot;color: rgba(0 , 0 , 0 , 0) ; font-family: monospace ; font-size: 0px&quot;&gt;%3CmxGraphModel%3E%3Croot%3E%3CmxCell%20id%3D%220%22%2F%3E%3CmxCell%20id%3D%221%22%20parent%3D%220%22%2F%3E%3CmxCell%20id%3D%222%22%20value%3D%22%26lt%3Bh1%26gt%3B%26lt%3Bfont%20color%3D%26quot%3B%234d4d4d%26quot%3B%26gt%3BLoading%26lt%3B%2Ffont%26gt%3B%26lt%3B%2Fh1%26gt%3B%22%20style%3D%22rounded%3D1%3BwhiteSpace%3Dwrap%3Bhtml%3D1%3BstrokeWidth%3D2%3BfillWeight%3D4%3BhachureGap%3D8%3BhachureAngle%3D45%3Bsketch%3D1%3BstrokeColor%3D%2323445d%3BfillColor%3D%23C3ABD0%3B%22%20vertex%3D%221%22%20parent%3D%221%22%3E%3CmxGeometry%20x%3D%221450%22%20y%3D%22650%22%20width%3D%22200%22%20height%3D%2270%22%20as%3D%22geometry%22%2F%3E%3C%2FmxCell%3E%3C%2Froot%3E%3C%2FmxGraphModel%3E&lt;/span&gt;&lt;span style=&quot;color: rgba(0 , 0 , 0 , 0) ; font-family: monospace ; font-size: 0px&quot;&gt;%3CmxGraphModel%3E%3Croot%3E%3CmxCell%20id%3D%220%22%2F%3E%3CmxCell%20id%3D%221%22%20parent%3D%220%22%2F%3E%3CmxCell%20id%3D%222%22%20value%3D%22%26lt%3Bh1%26gt%3B%26lt%3Bfont%20color%3D%26quot%3B%234d4d4d%26quot%3B%26gt%3BLoading%26lt%3B%2Ffont%26gt%3B%26lt%3B%2Fh1%26gt%3B%22%20style%3D%22rounded%3D1%3BwhiteSpace%3Dwrap%3Bhtml%3D1%3BstrokeWidth%3D2%3BfillWeight%3D4%3BhachureGap%3D8%3BhachureAngle%3D45%3Bsketch%3D1%3BstrokeColor%3D%2323445d%3BfillColor%3D%23C3ABD0%3B%22%20vertex%3D%221%22%20parent%3D%221%22%3E%3CmxGeometry%20x%3D%221450%22%20y%3D%22650%22%20width%3D%22200%22%20height%3D%2270%22%20as%3D%22geometry%22%2F%3E%3C%2FmxCell%3E%3C%2Froot%3E%3C%2FmxGraphModel%3E&lt;/span&gt;" style="rounded=1;whiteSpace=wrap;html=1;strokeWidth=2;fillWeight=4;hachureGap=8;hachureAngle=45;sketch=1;strokeColor=#23445d;fillColor=#C3ABD0;" vertex="1" parent="1">
          <mxGeometry x="1545" y="755" width="200" height="70" as="geometry" />
        </mxCell>
        <mxCell id="6aBQAh_S1EAsdeb0UYPw-106" style="edgeStyle=orthogonalEdgeStyle;rounded=0;orthogonalLoop=1;jettySize=auto;html=1;entryX=1;entryY=0.5;entryDx=0;entryDy=0;" edge="1" parent="1" source="6aBQAh_S1EAsdeb0UYPw-96" target="6aBQAh_S1EAsdeb0UYPw-55">
          <mxGeometry relative="1" as="geometry" />
        </mxCell>
        <mxCell id="6aBQAh_S1EAsdeb0UYPw-96" value="&lt;h1&gt;&lt;font color=&quot;#4d4d4d&quot;&gt;NoData&lt;/font&gt;&lt;/h1&gt;" style="rounded=1;whiteSpace=wrap;html=1;strokeWidth=2;fillWeight=4;hachureGap=8;hachureAngle=45;sketch=1;strokeColor=#23445d;fillColor=#C3ABD0;" vertex="1" parent="1">
          <mxGeometry x="1540" y="865" width="200" height="70" as="geometry" />
        </mxCell>
        <mxCell id="6aBQAh_S1EAsdeb0UYPw-107" style="edgeStyle=orthogonalEdgeStyle;rounded=0;orthogonalLoop=1;jettySize=auto;html=1;entryX=1;entryY=0.5;entryDx=0;entryDy=0;" edge="1" parent="1" source="6aBQAh_S1EAsdeb0UYPw-97" target="6aBQAh_S1EAsdeb0UYPw-55">
          <mxGeometry relative="1" as="geometry" />
        </mxCell>
        <mxCell id="6aBQAh_S1EAsdeb0UYPw-97" value="&lt;h1&gt;&lt;font color=&quot;#4d4d4d&quot;&gt;ScanPayCode&lt;/font&gt;&lt;/h1&gt;" style="rounded=1;whiteSpace=wrap;html=1;strokeWidth=2;fillWeight=4;hachureGap=8;hachureAngle=45;sketch=1;strokeColor=#23445d;fillColor=#C3ABD0;" vertex="1" parent="1">
          <mxGeometry x="1545" y="985" width="200" height="70" as="geometry" />
        </mxCell>
        <mxCell id="6aBQAh_S1EAsdeb0UYPw-108" value="&lt;span style=&quot;font-size: 17px&quot;&gt;&lt;b&gt;component&lt;/b&gt;&lt;/span&gt;" style="text;html=1;resizable=0;autosize=1;align=center;verticalAlign=middle;points=[];fillColor=none;strokeColor=none;rounded=0;" vertex="1" parent="1">
          <mxGeometry x="1330" y="510" width="110" height="20" as="geometry" />
        </mxCell>
      </root>
    </mxGraphModel>
  </diagram>
</mxfile>
